<svg class="mobi-logo-small" width="65px" height="36px" viewBox="0 0 65 36" version="1.1" xmlns="http://www.w3.org/2000/svg" xmlns:xlink="http://www.w3.org/1999/xlink">
    <g stroke="none" stroke-width="1" fill="none" fill-rule="evenodd">
        <g transform="translate(-34.000000, -48.000000)" fill="#11283A">
            <g transform="translate(34.000000, 46.000000)">
                <g transform="translate(0.000000, 2.000000)">
                    <g>
                        <path d="M35.983317,9.96512321 C37.3644096,8.50377583 38.7019954,7.02364865 40,5.51952504 C39.8995747,3.79352146 39.7837749,2.41216216 39.6637226,1.46760731 C39.5420347,0.510532591 39.4105332,0 39.2708538,0 L24.6264311,0 C24.5034347,0 24.3935231,0.510532591 24.2783775,1.46760731 C24.1795878,2.40277226 24.0811253,3.76848172 24,5.46875 C26.515211,8.39283585 29.1841675,11.2449324 32.0186457,14 C33.3788027,12.6788056 34.6983971,11.3311804 35.983317,9.96512321" id="Fill-1"></path>
                        <path d="M39.9615159,16.026265 C37.7354675,18.2033431 35.3938408,20.3204332 32.9727125,22.3856418 C32.4800022,22.8042608 32.0063322,23.2403898 31.5039347,23.6538206 C28.5199474,21.1920427 25.6936275,18.6265017 23.0199642,16 C23.00226,17.2364014 22.9962473,18.5100926 23.00226,19.8042121 C23.00226,22.2105417 23.026645,24.4625237 23.0760831,26.4794176 C23.1138297,28.4758832 23.1853144,30.2223447 23.263814,31.6568686 C23.3439839,33.0592908 23.42716,34.1549636 23.5320489,34.9010846 C23.622908,35.6180223 23.7271288,36 23.8326857,36 L39.0432375,36 C39.1641603,36 39.2817427,35.6180223 39.3939805,34.9010846 C39.5028778,34.169231 39.6074326,33.0881499 39.6946173,31.7168566 L39.7012981,31.6568686 C39.790153,30.2223447 39.8646441,28.4758832 39.9177566,26.4794176 C39.970201,24.4625237 39.9989285,22.2105417 39.9989285,19.8042121 C40.0019349,18.5305209 39.9989285,17.2827705 39.9859009,16.0632306 L39.9615159,16.026265" id="Fill-2"></path>
                        <path d="M16.9630438,5.43465948 C17.1323292,3.70415991 17.3358037,2.32602898 17.5508957,1.39231806 C17.6946224,0.773363394 17.8466473,0.370844904 18,0.163646862 L17.8828279,0 L3.7959576,0 C3.31598365,0 2.84696346,0.483022188 2.40781717,1.39231806 C1.9524062,2.32602898 1.54081028,3.70415991 1.18265545,5.43465948 C0.817861966,7.20772044 0.518127195,9.3427181 0.315648558,11.7274752 C0.103543886,14.1412664 -0.00964499138,16.7827115 0.000644906598,19.520827 C0.0102709402,21.9692612 0.125119479,24.2606472 0.300379677,26.3128317 C0.483606247,28.3442303 0.745168815,30.1212504 1.05917667,31.5808749 C1.30148717,32.7046273 1.57964635,33.5710319 1.87539793,34.286327 L2.96413553,35.8304143 C3.08628657,35.8947513 3.20644603,36 3.33423992,36 L17.9956849,36 C17.7928743,36 17.5957066,35.6113387 17.4091607,34.8818564 C17.2212871,34.1226802 17.0516697,33.0078359 16.9013044,31.5808749 C16.7506072,30.1212504 16.624473,28.3442303 16.5438135,26.3128317 C16.4522002,24.2606472 16.3961036,21.9692612 16.3917885,19.520827 C16.3888011,16.7827115 16.4425742,14.1412664 16.5464689,11.7274752 C16.6457167,9.3427181 16.7851282,7.20772044 16.9630438,5.43465948" id="Fill-4"></path>
                        <path d="M48.0372858,5.43465948 C47.8680007,3.70415991 47.6641948,2.32602898 47.4494352,1.39231806 C47.3053769,0.773363394 47.1536843,0.370844904 47,0.163646862 L47.1175037,0 L61.2040104,0 C61.6843152,0 62.1533343,0.483022188 62.5921477,1.39231806 C63.0475576,2.32602898 63.4594846,3.70415991 63.8176386,5.43465948 C64.1830951,7.20772044 64.4818334,9.3427181 64.6853074,11.7274752 C64.8967477,14.1412664 65.0099363,16.7827115 64.9993145,19.520827 C64.9900204,21.9692612 64.8748402,24.2606472 64.7002443,26.3128317 C64.5163543,28.3442303 64.2551242,30.1212504 63.9407852,31.5808749 C63.6988071,32.7046273 63.4206486,33.5710319 63.1245657,34.286327 L62.0361625,35.8304143 C61.9140117,35.8947513 61.7938526,36 61.665727,36 L47.0043151,36 C47.2077891,36 47.4046244,35.6113387 47.590838,34.8818564 C47.7790431,34.1226802 47.9486601,33.0078359 48.099025,31.5808749 C48.24939,30.1212504 48.3755239,28.3442303 48.4565152,26.3128317 C48.5484602,24.2606472 48.6042247,21.9692612 48.6085398,19.520827 C48.6115272,16.7827115 48.5577543,14.1412664 48.4535278,11.7274752 C48.3546122,9.3427181 48.215201,7.20772044 48.0372858,5.43465948" id="Fill-6"></path>
                    </g>
                </g>
            </g>
        </g>
    </g>
</svg>