<svg xmlns="http://www.w3.org/2000/svg" viewBox="0 0 66 48">
		<g id="Demo-&amp;-Pricing" stroke="none" stroke-width="1" fill="none" fill-rule="evenodd">
			<g id="Demo-home-" transform="translate(-237.000000, -3566.000000)">
				<g id="Gesture-enabled-lists-Copy" transform="translate(234.000000, 3403.000000)">
					<g id="Forms" transform="translate(3.000000, 162.000000)">
						<g id="Forms-icon" transform="translate(0.000000, 0.450897)">
							<path d="M11.5031786,5.20208132 C-7.62868423,17.2617157 0.487863634,41.3809844 11.5031786,41.3809844 C22.5184936,41.3809844 66,61.8823629 66,33.5422221 C66,5.20208132 30.6350414,-6.85755305 11.5031786,5.20208132 Z" id="Path-11" fill="#CFD2FF"></path>
							<g id="forms" transform="translate(12.000000, 3.549103)" fill="#021642" fill-rule="nonzero">
								<path d="M36.3669241,3.91651856e-05 C36.079075,0.00163735375 35.7851014,0.0475662032 35.5095012,0.066249125 C34.5663359,0.128525531 33.6086251,0.103614969 32.6654599,0.128525531 C32.5327467,0.133749351 32.4002026,0.13900954 32.2673706,0.144094632 C30.0439823,0.147100229 27.8254727,0.153027622 25.5993761,0.163556009 C19.9771313,0.188466572 14.367901,0.225832415 8.74565626,0.288108821 C6.27137861,0.313019384 3.7473398,0.538771355 1.28531105,0.327031575 C1.09511958,0.294798914 0.76861451,0.364914948 0.611621593,0.560568097 C0.448590826,0.631483237 0.303253227,0.73531507 0.194393462,0.887519229 C0.010659973,1.13662485 0.0229088722,1.49938492 0.010659973,1.79831167 C-0.0138378256,2.54562854 0.00989441676,3.30462224 0.022143316,4.05193911 C0.0956367116,6.72982456 0.402624749,9.4427405 0.255637958,12.120626 C0.182144563,13.5031622 0.306164668,14.8872553 0.416404761,16.2697915 C0.526644854,17.7146041 0.512864843,19.1609737 0.500615944,20.6057863 C0.488367044,23.3708587 0.329131354,26.1476079 0.623104936,28.9002251 C0.917078518,31.5781106 0.526644854,34.317494 0.538893754,37.0078347 C0.538893754,37.6305988 0.550377097,38.2541413 0.4891326,38.8644501 C0.440137003,39.4498483 0.282432425,40.0227912 0.221187929,40.6081894 C0.123196735,41.5298802 0.524348186,41.9533598 1.43076673,41.9782703 C1.9697183,41.9907256 2.49642097,41.8669513 3.02312364,41.8420407 C3.75805759,41.8046749 4.4815082,41.8529391 5.21644216,41.8653944 C6.56382108,41.8778496 7.92268334,41.7898842 9.27006226,41.690242 C12.0750602,41.4660469 14.8815892,41.2543071 17.6988361,41.0674779 C19.2544463,40.9678357 20.8207743,40.9919678 22.3763845,40.9546019 C23.9932392,40.9047808 25.5863616,40.918793 27.2032163,40.9935247 C28.7833243,41.0682564 30.365729,41.0682564 31.945837,41.1803539 C33.3582845,41.2722739 34.7707431,41.4354007 36.1831906,41.4605977 C36.1377362,41.5818648 36.0848809,41.7009161 36.0224238,41.8147948 C35.8999348,42.0389898 36.4388864,42.0024025 36.5123798,41.9899472 C36.7451089,41.9525813 37.0750636,41.8521606 37.1975526,41.6279656 C37.2657961,41.5007436 37.3224105,41.3673562 37.3698027,41.2309535 C37.4663853,41.1327436 37.5238694,41.0293274 37.4501861,40.9779556 C37.551024,40.599675 37.5994696,40.1995005 37.6530585,39.810273 C37.7632986,38.9757691 37.8865532,38.154499 37.9477977,37.3075399 C38.0825356,35.53889 37.9210032,33.7943721 37.8597587,32.0257222 C37.7985142,30.1325195 37.8099975,28.251772 37.8099975,26.3585693 C37.8099975,24.5151877 37.5313351,22.6974951 37.5803307,20.8665687 C37.6048285,19.994699 37.6277952,19.1228294 37.6032974,18.2509597 C37.5787996,17.3043583 37.4318128,16.3562 37.4195639,15.4095986 C37.3950661,13.566217 37.5558329,11.6987033 37.6415752,9.85532169 C37.7273175,8.0617612 37.7985142,6.26975762 37.7372697,4.47619712 C37.7127719,3.66660385 37.6285607,2.85701057 37.6530585,2.04741729 C37.6775563,1.41219795 37.8107631,0.613503043 37.1860692,0.202478763 C36.9349668,0.0405601075 36.6547732,-0.00147646654 36.3669241,3.91651856e-05 Z M32.2750262,0.96146285 C33.2794359,0.96146285 34.2838457,0.960694006 35.2760065,0.973149287 C35.582229,0.973149287 35.8769681,0.976263107 36.1831906,0.988718389 C36.2270086,0.988718389 36.3146764,0.998644999 36.3937186,1.00817977 C36.5439721,1.34612418 36.5109393,1.8232023 36.4894131,2.19532375 C36.4526664,2.99246175 36.5139109,3.78804284 36.5506576,4.58518083 C36.624151,6.37874133 36.5514231,8.16296036 36.4779298,9.95652085 C36.3921875,11.7251708 36.2689329,13.5039406 36.2444351,15.2850458 C36.2199373,17.0287852 36.4656809,18.7483925 36.4166853,20.5045871 C36.3921875,21.3017251 36.3669241,22.0856294 36.4281686,22.8827674 C36.501662,23.8293687 36.6226199,24.777527 36.6348688,25.7241284 C36.6593666,27.4927783 36.6096054,29.248973 36.6463521,31.0176229 C36.6830988,32.973102 36.9043446,34.9394796 36.8186023,36.8949587 C36.7696067,37.8291048 36.6463521,38.7406757 36.5238631,39.6623665 C36.467686,40.0765171 36.4272034,40.5098189 36.3363019,40.927356 C34.0962844,40.8560059 31.8585636,40.5996264 29.6185462,40.5342362 C28.3079139,40.4968703 26.9827362,40.3948927 25.6721039,40.3824374 C24.3737206,40.3699822 23.0768684,40.4314801 21.790734,40.4563907 C20.4678529,40.4937565 19.154924,40.4696244 17.8442917,40.5692667 C16.5336595,40.6689089 15.2383384,40.7701081 13.9399551,40.857295 C11.2941929,41.031669 8.64766507,41.3679616 5.98965393,41.3555063 C4.8382574,41.343051 3.71135866,41.3041283 2.55996213,41.4411363 C2.08225506,41.5034128 1.54100682,41.515868 1.43076673,40.9429251 C1.33277554,40.494535 1.48282455,40.0095575 1.56856685,39.5611673 C1.78904703,38.440192 1.74005144,37.2935277 1.75230034,36.1476418 C1.76454924,34.8772032 1.87325822,33.6075429 1.89775602,32.3371042 C1.92225381,31.0915761 1.97124941,29.8226944 1.83651152,28.5771662 C1.68952473,27.2569064 1.66655804,25.9592218 1.69105584,24.6265067 C1.71555364,21.9735318 1.83498041,19.2956464 1.67574472,16.6551268 C1.59000242,15.2352247 1.42158006,13.8293348 1.44607786,12.3969775 C1.47057565,10.9770755 1.49354234,9.58208396 1.40780005,8.1621819 C1.32205775,6.72982456 1.2845455,5.2857904 1.2355499,3.85343306 C1.2110521,3.14348204 1.20033431,2.43119564 1.21258321,1.70878933 C1.21258321,1.57304595 1.21216761,1.42440686 1.22406656,1.28842359 C1.22686935,1.2905243 1.23941087,1.23216296 1.25086102,1.1599785 C3.42976357,1.31261735 5.6398103,1.13693113 7.82698882,1.1132712 C10.1420308,1.08836064 12.4555416,1.07590536 14.7705836,1.05099479 C20.6010596,1.00117367 26.4445501,0.96146285 32.2750262,0.96146285 Z M7.10736598,7.50827964 C7.01433216,7.50552951 6.92537576,7.52984608 6.84324909,7.57444832 C6.60238686,7.56189589 6.38319207,7.56678633 6.24611525,7.59001742 L6.7207601,7.66007838 C6.30298065,8.02525377 6.22297402,8.92053216 7.37148287,8.94452925 C7.97167894,8.95698453 8.70814401,8.77093377 8.20593914,7.99870634 C8.09340237,7.8243324 7.78841495,7.71219838 7.44421071,7.64450928 C7.33311748,7.55227369 7.21749131,7.51153495 7.10736598,7.50827964 Z M21.9744675,7.90139945 C18.1650598,7.9387653 14.3418721,7.79942184 10.5447133,8.18553555 C9.94451728,8.24781196 9.5403036,8.94608616 10.3609799,8.85889919 C13.986654,8.49769604 17.6245771,8.63548259 21.2625002,8.59811674 C23.0508395,8.58566146 24.8139154,8.73434638 26.6022547,8.73434638 C27.4841755,8.73434638 28.3538473,8.6837468 29.2357681,8.6837468 C30.1299377,8.6837468 31.0983663,8.6456025 31.9190426,9.06908206 C32.2620117,9.25591128 33.3544604,8.74680166 32.8645045,8.48524076 C31.3701388,7.70055804 29.4095493,8.00026325 27.7926946,8.03762909 C25.8573685,8.07499493 23.9220424,7.88894417 21.9744675,7.90139945 Z M7.25664944,12.276317 C7.16555867,12.2736241 7.07708842,12.2996357 6.99636033,12.3424857 C6.75319457,12.329511 6.52973741,12.3346388 6.39157093,12.3580548 L6.87004356,12.4281157 C6.45053493,12.7921811 6.37044342,13.6924239 7.52076633,13.7164589 C8.1209624,13.7289141 8.85359969,13.5428634 8.35139482,12.7706359 C8.23845874,12.595643 7.93154309,12.4801402 7.58583861,12.4125466 C7.47657182,12.3236558 7.36485108,12.2795155 7.25664944,12.276317 Z M21.9744675,13.0703411 C18.1650598,13.107707 14.3418721,12.9683635 10.5447133,13.3544773 C9.94451728,13.4042984 9.5403036,14.1025726 10.3609799,14.0278409 C13.986654,13.6666377 17.6245771,13.8044243 21.2625002,13.7670584 C23.0508395,13.7546032 24.8139154,13.9032881 26.6022547,13.9032881 C27.4841755,13.9032881 28.3538473,13.8526885 29.2357681,13.8526885 C30.1299377,13.8526885 31.0983663,13.8145442 31.9190426,14.2380238 C32.2620117,14.424853 33.3544604,13.9157434 32.8645045,13.6541825 C31.3701388,12.8694997 29.4095493,13.1692049 27.7926946,13.2065708 C25.8573685,13.2439366 23.9220424,13.0578859 21.9744675,13.0703411 Z M10.9772526,18.0485614 C10.9462955,18.0473208 10.9183048,18.0493398 10.8892136,18.0524536 C9.5490231,18.1997797 8.36981226,19.204059 7.79636657,20.4578798 C7.56713234,20.2860293 7.30823936,20.1654983 7.03081036,20.1192519 C6.4551121,20.0320649 5.80592044,20.827646 6.60209889,20.9521988 C6.96956587,21.0144752 7.32248728,21.6240055 7.43272737,21.9602981 C7.57971416,22.4460541 8.58642057,22.2109606 8.62316727,21.7501152 C8.70890956,20.6291399 9.54183471,19.0340855 10.7667246,18.8970774 C10.9994537,18.8721668 11.404433,18.7250388 11.4289308,18.4261121 C11.4396485,18.1754495 11.1939529,18.0572464 10.9772526,18.0485614 Z M13.5724881,19.6366097 C13.3780369,19.6412804 13.1721022,19.7144552 13.0557377,19.8078698 C12.8230086,19.994699 12.6408062,20.2048819 12.4815705,20.4539875 C12.4080771,20.5660851 12.344536,20.6921948 12.2710426,20.8042923 C12.1730514,20.9537557 11.9433845,21.0899853 12.1638647,21.0650748 C11.9556334,21.1024406 11.5139075,21.226215 11.5016586,21.5126864 C11.4649119,21.8116132 11.7941011,21.8886802 12.0145813,21.8513144 C12.4555416,21.7765827 12.8230086,21.6115502 13.1169822,21.2752576 C13.1940131,21.1894694 13.2584374,21.0877035 13.3198546,20.9794447 C13.6883517,21.3865929 14.1755835,21.5808044 14.7591002,21.1662739 C15.0163271,20.9794447 15.0760405,20.8284244 15.3945119,20.8159691 C15.6884855,20.8035139 16.0199713,20.9413004 16.301696,20.9911215 C17.0366299,21.1032191 17.8320428,20.9638756 18.5792257,20.9638756 C18.8364526,20.9638756 19.2421974,20.8914793 19.3524375,20.6174631 C19.4626776,20.3683575 19.2529152,20.1932051 19.0079372,20.1932051 C18.4567367,20.1932051 17.9200818,20.2072173 17.3811302,20.2321278 C16.9034232,20.2570384 16.4877262,20.1309287 16.022268,20.0686523 C15.6058054,20.0188311 15.1747973,20.0445202 14.7705836,20.1815283 C14.5910196,20.2499999 14.4538932,20.3199513 14.3189054,20.4267416 C14.1862486,20.2382098 14.0700997,19.9869145 14.0241663,19.8701462 C13.9506729,19.6957723 13.7669394,19.631939 13.5724881,19.6366097 Z M31.421431,19.6599634 C31.1923386,19.6652182 30.9429584,19.7806239 30.8051583,19.9207458 C30.6091759,20.1200303 30.0595065,20.1317071 29.8022797,20.1815283 C29.6675418,20.2064388 29.5052438,20.2438047 29.3582571,20.2438047 C29.0275368,20.2562599 28.9808378,20.1317071 28.7113621,20.0569754 C28.3806418,19.9697885 27.9879114,20.0670954 27.681689,20.2165587 C27.5959467,20.2663799 27.5224533,20.3068595 27.436711,20.3566806 C27.5224533,20.2694937 27.5102044,20.2173372 27.3754665,20.2048819 C27.2407286,20.1550608 27.1312541,20.1044612 26.9965162,20.0920059 C26.5800536,20.0421848 26.2967978,20.3559022 25.9170819,20.3683575 C25.5741127,20.3808128 25.2816703,20.0951197 24.9142033,20.107575 C24.5467363,20.1200303 24.1785038,20.2928473 23.8845302,20.5045871 L23.6625189,20.6914163 C23.7360123,20.7038716 23.7245289,20.7030932 23.6510356,20.7030932 C23.60204,20.653272 23.6510356,20.3177579 23.6510356,20.2554815 C23.6387867,20.0437417 23.4803165,19.9448779 23.2720852,19.9324226 C22.4269112,19.8826015 21.9377208,20.3411115 21.423267,20.9638756 C20.933311,21.4994527 22.070162,21.5741844 22.3763845,21.2129812 C22.3947162,21.1943407 22.4376461,21.1372058 22.4873901,21.068967 C22.5191282,21.1559124 22.5696611,21.2366276 22.6596403,21.3025036 C23.0148583,21.5765198 23.6648156,21.5025665 24.0567803,21.3531031 C24.2772605,21.2534609 24.4341995,21.051841 24.6424308,20.9521988 L24.6079808,20.8782455 C24.6692253,20.9156114 24.7297042,20.938965 24.8031976,20.9638756 C24.9501844,21.0136967 25.073439,21.0783085 25.2204258,21.1156743 C25.4654038,21.1779508 25.7218651,21.1654955 25.9668431,21.1156743 C26.1383277,21.0783085 26.4698135,20.8774671 26.5678047,20.8899224 C26.7882849,20.8899224 27.0309662,21.0884284 27.2759442,21.0884284 C27.5086733,21.0884284 27.7567135,21.0409427 27.9649448,20.9288451 C27.994238,20.9139511 28.0555535,20.8858507 28.1104004,20.8548919 C28.1399056,20.8681306 28.1604139,20.8755913 28.2214061,20.9015992 C28.4418863,21.0012415 28.6998787,21.026152 28.9448567,21.026152 C29.8145286,21.026152 31.1243952,20.8408797 31.7735869,20.1932051 C31.9695693,19.9939206 31.8723436,19.7821808 31.6396145,19.6949938 C31.5722456,19.6700833 31.4977956,19.6582121 31.421431,19.6599634 Z M11.0652916,23.5794847 C11.0092145,23.5814302 10.9550515,23.5888261 10.9121803,23.5950538 C9.59088286,23.7514958 8.39058064,24.7015261 7.80402213,25.9265267 C7.61401194,25.7925888 7.40002318,25.6990833 7.17626604,25.661852 C6.91903916,25.6244861 6.52937105,25.6968825 6.34563756,25.8837117 C6.18640187,26.0456303 6.1718563,26.2083274 6.44133209,26.2456933 C6.89454136,26.320425 7.29798948,26.9680996 7.43272737,27.3666686 C7.54296746,27.7029612 8.58718613,27.428945 8.61168392,27.117563 C8.69742622,26.0090429 9.5035569,24.3042263 10.7284468,24.1672182 C10.8999314,24.1423077 11.4013707,24.0177549 11.4136196,23.7935598 C11.4228063,23.6067306 11.2335225,23.5736456 11.0652916,23.5794847 Z M32.8338822,24.8094437 C32.7293207,24.8107303 32.6187609,24.8398034 32.5085208,24.9028583 C31.7245913,25.3637037 30.767646,25.6867625 29.8979742,25.2259171 C29.6284984,25.088909 29.2847637,25.1005859 29.0520346,25.2998704 C28.8070566,25.5116102 28.3814073,25.3255594 28.0874338,25.2881935 C27.7812113,25.2508277 27.4627399,25.2243602 27.1687663,25.3115472 C26.7890504,25.4111894 26.8594816,25.4882565 26.4797657,25.4010695 C26.1490454,25.3263378 25.8313396,25.2368155 25.4883704,25.2492708 C25.1943969,25.2617261 24.9256866,25.376159 24.6807086,25.5256223 C24.5582197,25.600354 24.3607062,25.6984394 24.2749639,25.7980816 C24.233336,25.8464579 24.2279991,25.9012736 24.2290305,25.9343113 C24.1922838,25.7848479 24.3117106,25.6852056 24.2137194,25.4983764 C24.1752982,25.4245814 24.1150055,25.3676146 24.045297,25.3193317 C24.0095915,25.2247476 23.9249344,25.1437472 23.8118024,25.1013643 C23.67094,25.0453156 23.5147665,25.054657 23.3677798,25.1013643 C23.1311102,25.1241625 22.8829402,25.2622554 22.751507,25.4283155 C22.5148779,25.4927155 22.1900456,25.510676 22.0242286,25.5372992 C21.607766,25.5995756 21.1882412,25.6984394 20.7840276,25.548976 C20.3798139,25.3995126 20.0521558,25.3878358 19.6356933,25.5372992 C19.5009554,25.5871203 19.3754042,25.6735288 19.2529152,25.6735288 C19.0569328,25.6610735 18.875496,25.5116102 18.6672647,25.4866996 C18.2018065,25.4368785 17.8220906,25.7723926 17.3811302,25.747482 C16.9891655,25.7225715 16.6837085,25.4610106 16.267246,25.4983764 C15.8262856,25.5481975 15.4940342,25.7965247 15.1265672,26.0082645 C15.0408249,26.0580856 14.906087,26.173297 14.8815892,26.08611 C14.8815892,26.08611 14.9168048,25.7482605 14.9045559,25.6735288 C14.892307,25.4493337 14.7338369,25.3240025 14.5256056,25.3115472 C13.6436849,25.2617261 13.1185133,25.7365837 12.542815,26.3468924 C12.0528591,26.8824695 13.1912411,27.0194776 13.5342103,26.6582745 C13.5802601,26.6062463 13.6584852,26.5016381 13.7447383,26.4013843 C13.7734999,26.5312007 13.8364323,26.6487026 13.9744051,26.7439045 C14.354121,27.0054654 14.9902982,26.9564228 15.3945119,26.7945041 C15.627241,26.7073171 15.8017878,26.5204879 16.022268,26.4208457 C16.1692548,26.3585693 16.1202592,26.3577908 16.267246,26.3702461 C16.4142328,26.3827014 16.6331818,26.5080326 16.7801686,26.5453985 C17.0373955,26.6076749 17.3076368,26.6068964 17.5648637,26.5570753 C17.8098417,26.5072542 18.0892697,26.3095266 18.3342477,26.3468924 C18.5914746,26.3842583 18.8142515,26.5337217 19.0959761,26.5337217 C19.353203,26.5337217 19.5866977,26.45899 19.8194268,26.3468924 C20.1011514,26.2223396 19.9388535,26.294736 20.2328271,26.3819229 C20.5145518,26.4691099 20.8460376,26.4722237 21.1400112,26.4597684 C21.700767,26.4212405 22.3803335,26.3563199 22.9811739,26.1639555 C23.0017716,26.3999881 23.1866063,26.55264 23.4060576,26.6465977 C23.7612756,26.796061 24.1302737,26.7945041 24.4854918,26.6699513 C24.8039632,26.5578538 25.0971712,26.2106628 25.4156426,26.1483864 C25.7953585,26.0736547 26.32053,26.3842583 26.7247437,26.3468924 C26.8839794,26.3344372 27.0447462,26.2955144 27.191733,26.2456933 C27.2615284,26.2279507 27.3292355,26.1946889 27.3946054,26.156171 C27.4194927,26.161944 27.4765432,26.1657154 27.5821667,26.1600632 C28.2064379,26.2989234 28.8469304,26.3728318 29.4156738,26.1211405 C30.6235377,26.5676299 31.9148485,26.2805569 33.0329268,25.6229292 C33.600204,25.2990919 33.2869813,24.8038699 32.8338822,24.8094437 Z M26.3725879,32.064645 C24.7067376,32.064645 23.0401217,32.211773 21.3620225,32.2242283 C21.2977158,32.2242283 21.2234568,32.2285104 21.1476668,32.2397974 C20.8394232,32.2622493 20.5444942,32.377295 20.4050772,32.687409 C20.2335927,33.0610675 20.3698617,33.6830531 20.3821106,34.0691668 C20.4188573,35.1901421 20.3706272,36.3111174 20.4931162,37.4320927 C20.5053651,37.5940114 20.7495775,37.6570662 20.8720665,37.6695215 C20.8983269,37.6695215 20.9229203,37.6713699 20.9486222,37.6734138 C21.0021155,37.6851068 21.0612826,37.6928752 21.1285279,37.6928752 C22.8678716,37.6928752 24.5949664,37.7193426 26.33431,37.7317979 C27.2039819,37.7442532 28.0721226,37.7037735 28.9295456,37.7785052 C29.7012262,37.8407816 30.4246768,37.8913812 31.1841086,37.704552 C31.438054,37.6399963 31.5769859,37.4943629 31.6204756,37.3386781 C31.7180626,37.2736528 31.7850702,37.1982672 31.7850702,37.1090339 C31.7850702,35.5272131 31.8577981,33.9422786 31.8577981,32.3604579 C31.8577981,32.3035709 31.7964837,32.2696029 31.700859,32.2553665 C31.6315854,32.1969201 31.5337069,32.1619519 31.4290866,32.1619519 C29.7387385,32.1619519 28.0506871,32.064645 26.3725879,32.064645 Z M11.7351532,32.0763218 C10.1962699,32.0763218 8.65590564,32.2027516 7.10736598,32.2320128 C7.05025635,32.1985318 6.97052275,32.1724616 6.85856022,32.1619519 C6.44209764,32.1121307 5.94065833,32.1619519 5.74467594,32.5978867 C5.57319135,32.9715451 5.70563257,33.5935307 5.71788147,33.9796445 C5.75462817,35.1006198 5.70639813,36.2215951 5.82888712,37.3425704 C5.84113602,37.504489 6.08534845,37.5675439 6.20783744,37.5799992 C6.28133084,37.5799992 6.3571209,37.591676 6.4183654,37.591676 C6.58809803,37.5998952 6.82149223,37.56305 6.99253255,37.4593386 C8.52747103,37.4647878 10.0624146,37.4845182 11.5973531,37.5060459 C12.467025,37.5185012 13.3497113,37.4811354 14.2193831,37.5683224 C14.9910638,37.643054 15.7259977,37.6539524 16.4854295,37.4671232 C16.5805385,37.442945 16.7962184,37.3721293 16.9217965,37.2608326 C17.0412502,37.1955844 17.1246689,37.1137033 17.1246689,37.0195115 C17.1246689,35.4376908 17.1973968,33.8566486 17.1973968,32.2748278 C17.1935396,32.2081535 17.071886,32.1777402 16.9103132,32.1814132 C16.8733521,32.1775695 16.8337098,32.1736287 16.791652,32.1736287 C15.1013039,32.1736287 13.4132524,32.0763218 11.7351532,32.0763218 Z M11.2451973,32.6601631 C12.8366514,32.6601631 14.4257244,32.7380323 16.0069569,32.75747 C16.0026771,34.1755623 15.9466237,35.5936347 15.9380568,37.011727 C15.3242253,37.0627886 14.6823021,36.9269177 14.0739274,36.9066355 C13.2532512,36.881725 12.4333405,36.8949587 11.6126642,36.8949587 C10.0927178,36.8832495 8.5698957,36.8626086 7.04994927,36.8599282 C7.03419412,36.8520777 7.01735679,36.8465737 7.00018812,36.8404669 C6.93688152,36.1075508 6.95808252,35.3742473 6.95808252,34.6413313 C6.95808252,34.2801281 6.92057027,33.9204819 6.90832137,33.5592787 C6.90832137,33.4331117 6.86974248,33.054085 6.862388,32.8392078 C6.87874959,32.8295823 6.89645464,32.8223882 6.91214915,32.8119618 C8.35209509,32.7759424 9.79485998,32.6709282 11.2451973,32.6601631 Z M25.9438764,32.8469923 C27.5224667,32.8469923 29.0987445,32.9202082 30.6673582,32.9404069 C30.6611357,34.2639313 30.6143106,35.5870035 30.6022859,36.9105278 C29.9412838,36.9913165 29.2662017,36.8527428 28.6003564,36.8210055 C27.7919291,36.7960949 26.9819706,36.8093287 26.1735432,36.8093287 C24.6683079,36.7979906 23.1635796,36.774201 21.6491061,36.7704059 C21.6009446,36.089746 21.6184838,35.4076213 21.6184838,34.7269613 C21.6184838,34.3657582 21.5809716,34.0061119 21.5687227,33.6449088 C21.5687227,33.5306191 21.5380282,33.2183104 21.5266171,32.9987911 C22.9946048,32.9648268 24.4652481,32.8579667 25.9438764,32.8469923 Z" id="path3083"></path>
							</g>
						</g>
					</g>
				</g>
			</g>
		</g>
	</svg>
